<svg width="42" height="37" viewBox="0 0 42 37" fill="none" xmlns="http://www.w3.org/2000/svg">
<path d="M41.8896 5.57418C41.772 5.29363 41.5741 5.05427 41.321 4.88626C41.0679 4.71825 40.7708 4.6291 40.4673 4.63005H34.624C33.9228 3.40369 32.9494 2.35559 31.7792 1.5669C30.609 0.778218 29.2734 0.270122 27.8758 0.0819629C26.4782 -0.106196 25.0562 0.0306328 23.7199 0.481853C22.3836 0.933073 21.1688 1.68657 20.1696 2.684C19.2948 3.53905 18.5993 4.56074 18.124 5.68906C17.6486 6.81737 17.4031 8.02954 17.4018 9.25433V10.4297C9.5787 8.38728 3.17803 2.06743 3.12036 1.99036C2.9193 1.79207 2.66771 1.65304 2.39311 1.58847C2.11851 1.5239 1.83149 1.53629 1.56344 1.62427C1.29624 1.70951 1.05697 1.8655 0.870894 2.07577C0.684816 2.28604 0.55884 2.54278 0.506271 2.81888C-1.16598 12.106 1.6211 18.3295 4.25442 21.9133C5.57521 23.7255 7.17824 25.3129 9.00206 26.6146C6.06121 29.948 1.525 31.6821 1.48656 31.7013C1.26963 31.782 1.07366 31.9107 0.913238 32.0778C0.752817 32.2449 0.632081 32.4461 0.560028 32.6665C0.487975 32.8869 0.466461 33.1208 0.49709 33.3506C0.527719 33.5805 0.6097 33.8005 0.736926 33.9942C0.890696 34.2254 1.46733 34.9769 2.87049 35.6898C4.61962 36.5568 6.92617 37 9.71325 37C23.2642 37 34.6048 26.5376 35.758 13.0694L41.5629 7.26974C41.7715 7.04688 41.9129 6.76936 41.9707 6.4693C42.0285 6.16923 42.0004 5.85889 41.8896 5.57418ZM33.1824 11.2967C32.9145 11.563 32.7567 11.9208 32.7403 12.2986C31.9522 24.4181 21.8419 33.9171 9.71325 33.9171C7.6758 33.9171 6.25343 33.6474 5.25392 33.3198C7.46436 32.1252 10.5398 30.0443 12.5388 27.0578C12.6548 26.877 12.7319 26.674 12.765 26.4616C12.7981 26.2492 12.7865 26.0323 12.731 25.8247C12.675 25.6149 12.576 25.4192 12.4403 25.25C12.3047 25.0808 12.1352 24.9418 11.9429 24.842C11.9237 24.8227 9.07895 23.3391 6.63785 19.9672C3.86999 16.1522 2.69749 11.5087 3.1588 6.15221C6.19576 8.65703 12.0006 12.7418 18.6896 13.8593C18.9105 13.8949 19.1364 13.8823 19.352 13.8225C19.5676 13.7626 19.7678 13.6569 19.939 13.5125C20.1063 13.3657 20.2408 13.1851 20.3335 12.9826C20.4263 12.78 20.4752 12.5601 20.4772 12.3372V9.25433C20.48 7.84007 20.9678 6.46978 21.8588 5.37319C22.7497 4.27661 23.9897 3.52039 25.3707 3.23131C26.7518 2.94223 28.19 3.13787 29.4443 3.78543C30.6985 4.433 31.6926 5.49311 32.2598 6.78805C32.3824 7.0635 32.5819 7.29744 32.8344 7.46157C33.0868 7.62571 33.3813 7.713 33.6822 7.7129H36.7576L33.1824 11.2967Z" fill="#B7AEA5"/>
</svg>
