<svg width="42" height="25" viewBox="0 0 42 25" fill="none" xmlns="http://www.w3.org/2000/svg">
<path d="M41.1689 4.95392L22.5514 24.3664C22.3298 24.5968 22.0897 24.7596 21.8311 24.8548C21.5726 24.9516 21.2955 25 21 25C20.7045 25 20.4274 24.9516 20.1689 24.8548C19.9103 24.7596 19.6702 24.5968 19.4485 24.3664L0.775725 4.95392C0.258575 4.41628 0 3.74424 0 2.93779C0 2.13134 0.277045 1.44009 0.831134 0.864056C1.38522 0.28802 2.03166 1.13963e-06 2.77045 1.13963e-06C3.50923 1.13963e-06 4.15567 0.28802 4.70976 0.864056L21 17.7995L37.2902 0.864056C37.8074 0.326422 38.4442 0.0576039 39.2007 0.0576039C39.9587 0.0576039 40.6148 0.345622 41.1689 0.921659C41.723 1.4977 42 2.16974 42 2.93779C42 3.70584 41.723 4.37788 41.1689 4.95392Z" fill="#E33E08"/>
</svg>
