<svg width="78" height="78" viewBox="0 0 78 78" fill="none" xmlns="http://www.w3.org/2000/svg">
<path d="M23.407 78C21.2613 78 19.4252 77.2369 17.8985 75.7107C16.3693 74.1819 15.6046 72.345 15.6046 70.2C15.6046 68.055 16.3693 66.2181 17.8985 64.6893C19.4252 63.1631 21.2613 62.4 23.407 62.4C25.5526 62.4 27.3888 63.1631 28.9154 64.6893C30.4447 66.2181 31.2093 68.055 31.2093 70.2C31.2093 72.345 30.4447 74.1819 28.9154 75.7107C27.3888 77.2369 25.5526 78 23.407 78ZM62.4186 78C60.2729 78 58.4368 77.2369 56.9101 75.7107C55.3809 74.1819 54.6163 72.345 54.6163 70.2C54.6163 68.055 55.3809 66.2181 56.9101 64.6893C58.4368 63.1631 60.2729 62.4 62.4186 62.4C64.5642 62.4 66.4017 63.1631 67.9309 64.6893C69.4576 66.2181 70.2209 68.055 70.2209 70.2C70.2209 72.345 69.4576 74.1819 67.9309 75.7107C66.4017 77.2369 64.5642 78 62.4186 78ZM20.091 15.6L29.4538 35.1H56.7619L67.4901 15.6H20.091ZM23.407 58.5C20.4811 58.5 18.2704 57.2156 16.775 54.6468C15.2795 52.0806 15.2145 49.53 16.5799 46.995L21.8465 37.44L7.80232 7.8H3.80363C2.6983 7.8 1.78803 7.4256 1.07282 6.6768C0.357606 5.9306 0 5.005 0 3.9C0 2.795 0.374511 1.8681 1.12353 1.1193C1.86996 0.3731 2.79583 0 3.90116 0H10.2405C10.9558 0 11.6385 0.195 12.2887 0.585C12.9389 0.975 13.4265 1.5275 13.7516 2.2425L16.3849 7.8H73.927C75.6825 7.8 76.8854 8.45 77.5356 9.75C78.1858 11.05 78.1533 12.415 77.438 13.845L63.5889 38.805C62.8737 40.105 61.9309 41.1125 60.7606 41.8275C59.5902 42.5425 58.2573 42.9 56.7619 42.9H27.6982L23.407 50.7H66.4173C67.5226 50.7 68.4329 51.0731 69.1481 51.8193C69.8633 52.5681 70.2209 53.495 70.2209 54.6C70.2209 55.705 69.8464 56.6306 69.0974 57.3768C68.3509 58.1256 67.4251 58.5 66.3197 58.5H23.407Z" fill="#B7AEA5"/>
</svg>
