<svg width="60" height="60" viewBox="0 0 60 60" fill="none" xmlns="http://www.w3.org/2000/svg">
<path d="M3.75 30C3.75 36.9619 6.51562 43.6387 11.4384 48.5616C16.3613 53.4844 23.0381 56.25 30 56.25C36.9619 56.25 43.6387 53.4844 48.5616 48.5616C53.4844 43.6387 56.25 36.9619 56.25 30C56.25 23.0381 53.4844 16.3613 48.5616 11.4384C43.6387 6.51562 36.9619 3.75 30 3.75C23.0381 3.75 16.3613 6.51562 11.4384 11.4384C6.51562 16.3613 3.75 23.0381 3.75 30V30ZM60 30C60 37.9565 56.8393 45.5871 51.2132 51.2132C45.5871 56.8393 37.9565 60 30 60C22.0435 60 14.4129 56.8393 8.7868 51.2132C3.16071 45.5871 0 37.9565 0 30C0 22.0435 3.16071 14.4129 8.7868 8.7868C14.4129 3.16071 22.0435 0 30 0C37.9565 0 45.5871 3.16071 51.2132 8.7868C56.8393 14.4129 60 22.0435 60 30V30ZM30.5475 18.72C26.0025 18.72 23.3212 22.17 23.3212 28.1025V32.0775C23.3212 37.9687 25.9575 41.31 30.5475 41.31C34.2187 41.31 36.7013 39.1125 37.0312 35.9925H41.8875V36.3412C41.5125 41.7712 36.81 45.5925 30.525 45.5925C22.6838 45.5925 18.2662 40.5825 18.2662 32.0813V28.0575C18.2662 19.5787 22.77 14.415 30.5287 14.415C36.8325 14.415 41.535 18.3675 41.8875 24.06V24.39H37.0312C36.7013 21.0938 34.1512 18.72 30.5475 18.72V18.72Z" fill="#B7AEA5"/>
</svg>
