<svg width="80" height="80" viewBox="0 0 80 80" fill="none" xmlns="http://www.w3.org/2000/svg">
<path d="M11.9281 1.9635L40 30.0342L67.9265 2.10894C68.5433 1.45239 69.2864 0.927167 70.1112 0.564776C70.936 0.202384 71.8255 0.0102854 72.7263 0C74.6551 0 76.5049 0.766176 77.8688 2.12998C79.2326 3.49378 79.9988 5.3435 79.9988 7.2722C80.0158 8.16379 79.8504 9.04944 79.5127 9.87479C79.175 10.7001 78.6723 11.4478 78.0352 12.0719L49.7452 39.9971L78.0352 68.286C79.2339 69.4586 79.9367 71.0464 79.9988 72.722C79.9988 74.6508 79.2326 76.5005 77.8688 77.8643C76.5049 79.2281 74.6551 79.9942 72.7263 79.9942C71.7995 80.0327 70.8747 79.878 70.0109 79.54C69.147 79.202 68.3629 78.688 67.7083 78.0307L40 49.96L12.0008 77.958C11.3863 78.5927 10.6522 79.0994 9.84091 79.4489C9.02957 79.7984 8.15705 79.9837 7.2737 79.9942C5.34491 79.9942 3.49511 79.2281 2.13125 77.8643C0.767392 76.5005 0.00118329 74.6508 0.00118329 72.722C-0.0157725 71.8305 0.149655 70.9448 0.487314 70.1195C0.824973 69.2941 1.32774 68.5465 1.96476 67.9224L30.2548 39.9971L1.96476 11.7082C0.766142 10.5357 0.0632878 8.94781 0.00118329 7.2722C0.00118329 5.3435 0.767392 3.49378 2.13125 2.12998C3.49511 0.766176 5.34491 0 7.2737 0C9.0191 0.0218166 10.6918 0.72722 11.9281 1.9635Z" fill="#F24E1E"/>
</svg>
