<svg width="78" height="52" viewBox="0 0 78 52" fill="none" xmlns="http://www.w3.org/2000/svg">
<path d="M4.33333 52C3.10556 52 2.07711 51.584 1.248 50.752C0.416 49.9229 0 48.8944 0 47.6667C0 46.4389 0.416 45.4104 1.248 44.5813C2.07711 43.7493 3.10556 43.3333 4.33333 43.3333H73.6667C74.8944 43.3333 75.9229 43.7493 76.752 44.5813C77.584 45.4104 78 46.4389 78 47.6667C78 48.8944 77.584 49.9229 76.752 50.752C75.9229 51.584 74.8944 52 73.6667 52H4.33333ZM4.33333 30.3333C3.10556 30.3333 2.07711 29.9173 1.248 29.0853C0.416 28.2562 0 27.2278 0 26C0 24.7722 0.416 23.7423 1.248 22.9103C2.07711 22.0812 3.10556 21.6667 4.33333 21.6667H73.6667C74.8944 21.6667 75.9229 22.0812 76.752 22.9103C77.584 23.7423 78 24.7722 78 26C78 27.2278 77.584 28.2562 76.752 29.0853C75.9229 29.9173 74.8944 30.3333 73.6667 30.3333H4.33333ZM4.33333 8.66667C3.10556 8.66667 2.07711 8.25211 1.248 7.423C0.416 6.591 0 5.56111 0 4.33333C0 3.10556 0.416 2.07567 1.248 1.24367C2.07711 0.414556 3.10556 0 4.33333 0H73.6667C74.8944 0 75.9229 0.414556 76.752 1.24367C77.584 2.07567 78 3.10556 78 4.33333C78 5.56111 77.584 6.591 76.752 7.423C75.9229 8.25211 74.8944 8.66667 73.6667 8.66667H4.33333Z" fill="#B7AEA5"/>
</svg>
