<svg width="47" height="60" viewBox="0 0 47 60" fill="none" xmlns="http://www.w3.org/2000/svg">
<path d="M23.5 30C25.1156 30 26.4992 29.412 27.6507 28.236C28.8002 27.062 29.375 25.65 29.375 24C29.375 22.35 28.8002 20.937 27.6507 19.761C26.4992 18.587 25.1156 18 23.5 18C21.8844 18 20.5018 18.587 19.3523 19.761C18.2008 20.937 17.625 22.35 17.625 24C17.625 25.65 18.2008 27.062 19.3523 28.236C20.5018 29.412 21.8844 30 23.5 30ZM23.5 52.05C29.4729 46.45 33.9036 41.362 36.7922 36.786C39.6807 32.212 41.125 28.15 41.125 24.6C41.125 19.15 39.4232 14.687 36.0196 11.211C32.618 7.737 28.4448 6 23.5 6C18.5552 6 14.381 7.737 10.9774 11.211C7.57581 14.687 5.875 19.15 5.875 24.6C5.875 28.15 7.31927 32.212 10.2078 36.786C13.0964 41.362 17.5271 46.45 23.5 52.05ZM23.5 60C15.6177 53.15 9.73096 46.787 5.83975 40.911C1.94658 35.037 0 29.6 0 24.6C0 17.1 2.36273 11.125 7.08819 6.675C11.8117 2.225 17.2823 0 23.5 0C29.7177 0 35.1883 2.225 39.9118 6.675C44.6373 11.125 47 17.1 47 24.6C47 29.6 45.0544 35.037 41.1632 40.911C37.27 46.787 31.3823 53.15 23.5 60Z" fill="#B7AEA5"/>
</svg>
