<svg width="100" height="28" viewBox="0 0 100 28" fill="none" xmlns="http://www.w3.org/2000/svg">
<path d="M0 18V0.299999H0.9V18H0ZM3.6 18V0.299999H4.5V18H3.6ZM5.4 18V0.299999H6.3V18H5.4ZM9 18V0.299999H9.9V18H9ZM12.6 18V0.299999H13.5V18H12.6ZM14.4 18V0.299999H15.3V18H14.4ZM16.2 18V0.299999H18.9V18H16.2ZM19.8 18V0.299999H20.7V18H19.8ZM21.6 18V0.299999H22.5V18H21.6ZM25.2 18V0.299999H27.9V18H25.2ZM12.48 26.91H14.01V20.79H12.57V20.16H14.82V26.91H16.32V27.57H12.48V26.91ZM28.7988 18V0.299999H31.4988V18H28.7988ZM32.3988 18V0.299999H33.2988V18H32.3988ZM34.1988 18V0.299999H36.8988V18H34.1988ZM37.7988 18V0.299999H38.6988V18H37.7988ZM41.3988 18V0.299999H42.2988V18H41.3988ZM35.9988 27.69C35.1988 27.69 34.5888 27.38 34.1688 26.76C33.7288 26.14 33.5088 25.26 33.5088 24.12C33.5088 23.02 33.7288 22.15 34.1688 21.51C34.6088 20.89 35.2188 20.58 35.9988 20.58C36.7788 20.58 37.3888 20.89 37.8288 21.51C38.2688 22.15 38.4888 23.02 38.4888 24.12C38.4888 25.26 38.2688 26.14 37.8288 26.76C37.4088 27.38 36.7988 27.69 35.9988 27.69ZM35.9988 27C36.5388 27 36.9488 26.76 37.2288 26.28C37.5288 25.78 37.6788 25.06 37.6788 24.12C37.6788 23.24 37.5288 22.54 37.2288 22.02C36.9288 21.52 36.5188 21.27 35.9988 21.27C35.4788 21.27 35.0688 21.52 34.7688 22.02C34.4688 22.54 34.3188 23.24 34.3188 24.12C34.3188 25.06 34.4588 25.78 34.7388 26.28C35.0388 26.76 35.4588 27 35.9988 27ZM43.2129 18V0.299999H44.1129V18H43.2129ZM45.0129 18V0.299999H45.9129V18H45.0129ZM46.8129 18V0.299999H47.7129V18H46.8129ZM50.4129 18V0.299999H53.1129V18H50.4129ZM54.0129 18V0.299999H56.7129V18H54.0129ZM50.7129 27.69C50.1529 27.69 49.6729 27.54 49.2729 27.24C48.8729 26.96 48.5629 26.55 48.3429 26.01C48.1229 25.49 48.0129 24.88 48.0129 24.18C48.0129 23.26 48.1529 22.53 48.4329 21.99C48.7129 21.45 49.0529 21.07 49.4529 20.85C49.8529 20.65 50.2529 20.55 50.6529 20.55C51.0729 20.55 51.4729 20.66 51.8529 20.88C52.2529 21.08 52.5429 21.36 52.7229 21.72L52.1829 22.14L52.0929 22.23L52.0629 22.17C52.0629 22.11 52.0529 22.05 52.0329 21.99C51.9929 21.95 51.9329 21.88 51.8529 21.78C51.6729 21.58 51.4929 21.44 51.3129 21.36C51.1329 21.28 50.9129 21.24 50.6529 21.24C50.1129 21.24 49.6629 21.45 49.3029 21.87C48.9629 22.31 48.7929 23.02 48.7929 24C48.7929 24.96 48.9629 25.7 49.3029 26.22C49.6429 26.74 50.1129 27 50.7129 27C50.9329 27 51.1629 26.96 51.4029 26.88C51.6629 26.82 51.8729 26.72 52.0329 26.58V24.93H50.7729V24.24H52.7529V26.97C52.0929 27.45 51.4129 27.69 50.7129 27.69ZM57.627 18V0.299999H58.527V18H57.627ZM61.227 18V0.299999H63.927V18H61.227ZM64.827 18V0.299999H65.727V18H64.827ZM66.627 18V0.299999H69.327V18H66.627ZM70.227 18V0.299999H71.127V18H70.227ZM72.041 18V0.299999H72.941V18H72.041ZM73.841 18V0.299999H76.541V18H73.841ZM77.441 18V0.299999H78.341V18H77.441ZM81.041 18V0.299999H83.741V18H81.041ZM84.641 18V0.299999H85.541V18H84.641ZM77.351 26.91H78.731V21.27H77.441V20.61H80.891V21.27H79.511V26.91H80.951V27.57H77.351V26.91ZM86.4551 18V0.299999H87.3551V18H86.4551ZM88.2551 18V0.299999H89.1551V18H88.2551ZM90.0551 18V0.299999H92.7551V18H90.0551ZM93.6551 18V0.299999H94.5551V18H93.6551ZM97.2551 18V0.299999H99.9551V18H97.2551ZM91.4351 20.61H92.1851L95.0951 25.77V20.61H95.9651V20.7C95.9051 20.74 95.8751 20.79 95.8751 20.85C95.8551 20.89 95.8451 20.98 95.8451 21.12V27.57H95.2451L92.1551 22.11V27.57H91.4351V20.61Z" fill="#D4D4D4"/>
</svg>
