<svg width="75" height="78" viewBox="0 0 75 78" fill="none" xmlns="http://www.w3.org/2000/svg">
<path d="M67.7557 76.7795L43.892 51.926C41.7614 53.7013 39.3111 55.1067 36.5412 56.1422C33.7713 57.1778 30.8239 57.6956 27.6989 57.6956C19.9574 57.6956 13.4062 54.904 8.04545 49.3209C2.68182 43.7347 0 36.9104 0 28.8478C0 20.7852 2.68182 13.9609 8.04545 8.37474C13.4062 2.79158 19.9574 0 27.6989 0C35.4403 0 41.9929 2.79158 47.3565 8.37474C52.7173 13.9609 55.3977 20.7852 55.3977 28.8478C55.3977 32.1024 54.9006 35.1721 53.9062 38.0569C52.9119 40.9417 51.5625 43.4936 49.858 45.7127L73.8281 70.6771C74.6094 71.4907 75 72.4893 75 73.6728C75 74.8563 74.5739 75.8919 73.7216 76.7795C72.9403 77.5932 71.946 78 70.7386 78C69.5312 78 68.5369 77.5932 67.7557 76.7795V76.7795ZM27.6989 48.8193C33.0256 48.8193 37.554 46.8784 41.2841 42.9965C45.0114 39.1117 46.875 34.3954 46.875 28.8478C46.875 23.3001 45.0114 18.5839 41.2841 14.6991C37.554 10.8172 33.0256 8.87624 27.6989 8.87624C22.3722 8.87624 17.8437 10.8172 14.1136 14.6991C10.3864 18.5839 8.52273 23.3001 8.52273 28.8478C8.52273 34.3954 10.3864 39.1117 14.1136 42.9965C17.8437 46.8784 22.3722 48.8193 27.6989 48.8193Z" fill="#B7AEA5"/>
</svg>
