<svg width="182" height="88" viewBox="0 0 182 88" fill="none" xmlns="http://www.w3.org/2000/svg">
<path d="M0 57V0.359997H2.88V57H0ZM5.76 57V0.359997H14.4V57H5.76ZM17.28 57V0.359997H25.92V57H17.28ZM28.8 57V0.359997H31.68V57H28.8ZM40.32 57V0.359997H43.2V57H40.32ZM16.224 65.352H23.328C25.696 65.352 27.456 65.96 28.608 67.176C29.824 68.328 30.432 69.832 30.432 71.688C30.432 73.48 29.856 74.952 28.704 76.104C27.552 77.256 25.824 77.832 23.52 77.832H18.816V87.624H16.224V65.352ZM23.232 75.624C24.832 75.624 25.984 75.272 26.688 74.568C27.456 73.928 27.84 73 27.84 71.784C27.84 70.568 27.456 69.608 26.688 68.904C25.92 68.136 24.8 67.752 23.328 67.752H18.816V75.624H23.232ZM46.125 57V0.359997H49.005V57H46.125ZM51.885 57V0.359997H60.525V57H51.885ZM63.405 57V0.359997H66.285V57H63.405ZM74.925 57V0.359997H83.565V57H74.925ZM86.445 57V0.359997H89.325V57H86.445ZM63.117 85.512H67.533V67.464H63.405V65.352H74.445V67.464H70.029V85.512H74.637V87.624H63.117V85.512ZM92.25 57V0.359997H100.89V57H92.25ZM103.77 57V0.359997H106.65V57H103.77ZM109.53 57V0.359997H112.41V57H109.53ZM115.29 57V0.359997H118.17V57H115.29ZM126.81 57V0.359997H135.45V57H126.81ZM112.314 76.488L110.49 78.408V87.624H107.898V65.352H110.874V65.64C110.746 65.768 110.65 65.928 110.586 66.12C110.522 66.248 110.49 66.536 110.49 66.984V75.624L119.802 65.256C120.378 65.32 120.986 65.352 121.626 65.352H122.586L114.138 74.952L123.162 87.624L119.994 87.72L112.314 76.488ZM138.375 57V0.359997H147.015V57H138.375ZM149.895 57V0.359997H152.775V57H149.895ZM155.655 57V0.359997H164.295V57H155.655ZM172.935 57V0.359997H175.815V57H172.935ZM178.695 57V0.359997H181.575V57H178.695ZM154.599 65.352H168.231V67.56H156.903V74.856H166.311V77.16H156.903V85.416H168.135V87.624H154.599V65.352Z" fill="#433D3D"/>
</svg>
