<svg width="230" height="30" viewBox="0 0 230 30" fill="none" xmlns="http://www.w3.org/2000/svg">
<path d="M0 18V0.299999H0.9V18H0ZM3.6 18V0.299999H4.5V18H3.6ZM5.4 18V0.299999H6.3V18H5.4ZM9 18V0.299999H9.9V18H9ZM12.6 18V0.299999H13.5V18H12.6ZM14.4 18V0.299999H17.1V18H14.4ZM18 18V0.299999H18.9V18H18ZM19.8 18V0.299999H20.7V18H19.8ZM21.6 18V0.299999H24.3V18H21.6ZM27 18V0.299999H27.9V18H27ZM15.36 22.35C15.9 22.35 16.35 22.54 16.71 22.92L16.35 23.52L16.32 23.64L16.23 23.58C16.21 23.5 16.19 23.44 16.17 23.4C16.13 23.34 16.06 23.28 15.96 23.22C15.78 23.1 15.56 23.04 15.3 23.04C15.04 23.04 14.79 23.11 14.55 23.25C14.31 23.37 14.12 23.57 13.98 23.85C13.82 24.13 13.74 24.47 13.74 24.87V27.57H12.93V22.47H13.77L13.74 23.4C13.88 23.08 14.1 22.82 14.4 22.62C14.7 22.44 15.02 22.35 15.36 22.35ZM28.7988 18V0.299999H29.6988V18H28.7988ZM32.3988 18V0.299999H33.2988V18H32.3988ZM34.1988 18V0.299999H35.0988V18H34.1988ZM37.7988 18V0.299999H38.6988V18H37.7988ZM41.3988 18V0.299999H42.2988V18H41.3988ZM43.1988 18V0.299999H45.8988V18H43.1988ZM46.7988 18V0.299999H47.6988V18H46.7988ZM48.5988 18V0.299999H51.2988V18H48.5988ZM53.9988 18V0.299999H54.8988V18H53.9988ZM55.7988 18V0.299999H56.6988V18H55.7988ZM43.4388 27.69C42.6788 27.69 42.0788 27.46 41.6388 27C41.1788 26.54 40.9488 25.89 40.9488 25.05C40.9488 24.49 41.0588 24 41.2788 23.58C41.4788 23.18 41.7588 22.88 42.1188 22.68C42.4588 22.46 42.8488 22.35 43.2888 22.35C43.9088 22.35 44.4088 22.55 44.7888 22.95C45.1688 23.37 45.3588 23.98 45.3588 24.78C45.3588 24.86 45.3588 24.98 45.3588 25.14H41.7288C41.7488 25.76 41.9188 26.23 42.2388 26.55C42.5588 26.87 42.9688 27.03 43.4688 27.03C44.0088 27.03 44.4488 26.84 44.7888 26.46L45.2388 26.91C44.7988 27.43 44.1988 27.69 43.4388 27.69ZM44.5488 24.51C44.5488 24.03 44.4288 23.65 44.1888 23.37C43.9488 23.09 43.6288 22.95 43.2288 22.95C42.8688 22.95 42.5488 23.08 42.2688 23.34C41.9888 23.6 41.8188 23.99 41.7588 24.51H44.5488ZM57.5977 18V0.299999H58.4977V18H57.5977ZM61.1977 18V0.299999H62.0977V18H61.1977ZM62.9977 18V0.299999H63.8977V18H62.9977ZM66.5977 18V0.299999H67.4977V18H66.5977ZM70.1977 18V0.299999H71.0977V18H70.1977ZM71.9977 18V0.299999H72.8977V18H71.9977ZM73.7977 18V0.299999H74.6977V18H73.7977ZM75.5977 18V0.299999H76.4977V18H75.5977ZM79.1977 18V0.299999H81.8977V18H79.1977ZM82.7977 18V0.299999H85.4977V18H82.7977ZM74.5177 23.01C74.4377 22.99 74.3377 22.98 74.2177 22.98C73.8577 22.98 73.5577 23.06 73.3177 23.22C73.4577 23.48 73.5277 23.76 73.5277 24.06C73.5277 24.4 73.4477 24.7 73.2877 24.96C73.1477 25.24 72.9377 25.46 72.6577 25.62C72.3977 25.76 72.0877 25.83 71.7277 25.83C71.4477 25.83 71.1877 25.78 70.9477 25.68C70.8077 25.84 70.7377 26 70.7377 26.16C70.7377 26.34 70.8477 26.47 71.0677 26.55C71.3077 26.63 71.7177 26.67 72.2977 26.67C73.0177 26.67 73.5077 26.77 73.7677 26.97C74.0277 27.19 74.1577 27.52 74.1577 27.96C74.1577 28.4 73.9877 28.76 73.6477 29.04C73.2877 29.34 72.7277 29.49 71.9677 29.49C71.2277 29.49 70.6577 29.38 70.2577 29.16C69.8377 28.94 69.6277 28.61 69.6277 28.17C69.6277 27.91 69.7077 27.68 69.8677 27.48C70.0077 27.28 70.1977 27.13 70.4377 27.03C70.1777 26.87 70.0477 26.64 70.0477 26.34C70.0477 26.04 70.1977 25.73 70.4977 25.41C70.3177 25.25 70.1777 25.05 70.0777 24.81C69.9977 24.59 69.9577 24.34 69.9577 24.06C69.9577 23.74 70.0277 23.44 70.1677 23.16C70.3077 22.88 70.5177 22.67 70.7977 22.53C71.0577 22.37 71.3677 22.29 71.7277 22.29C72.2677 22.29 72.7077 22.46 73.0477 22.8C73.2077 22.64 73.3877 22.52 73.5877 22.44C73.7677 22.36 73.9777 22.32 74.2177 22.32L74.3977 22.35L74.5177 23.01ZM71.7277 25.17C72.0477 25.17 72.3177 25.06 72.5377 24.84C72.7377 24.64 72.8377 24.38 72.8377 24.06C72.8377 23.74 72.7377 23.47 72.5377 23.25C72.3177 23.05 72.0477 22.95 71.7277 22.95C71.4077 22.95 71.1377 23.05 70.9177 23.25C70.7177 23.47 70.6177 23.74 70.6177 24.06C70.6177 24.38 70.7177 24.64 70.9177 24.84C71.1377 25.06 71.4077 25.17 71.7277 25.17ZM73.4377 28.08C73.4377 27.9 73.4077 27.76 73.3477 27.66C73.2877 27.56 73.1577 27.48 72.9577 27.42C72.7777 27.38 72.4977 27.36 72.1177 27.36C71.5977 27.36 71.1777 27.31 70.8577 27.21C70.6777 27.33 70.5477 27.45 70.4677 27.57C70.4077 27.71 70.3777 27.88 70.3777 28.08C70.3777 28.34 70.5177 28.54 70.7977 28.68C71.0777 28.82 71.4677 28.89 71.9677 28.89C72.4677 28.89 72.8377 28.82 73.0777 28.68C73.3177 28.52 73.4377 28.32 73.4377 28.08ZM86.3965 18V0.299999H87.2965V18H86.3965ZM89.9965 18V0.299999H90.8965V18H89.9965ZM91.7965 18V0.299999H92.6965V18H91.7965ZM95.3965 18V0.299999H96.2965V18H95.3965ZM98.9965 18V0.299999H99.8965V18H98.9965ZM100.796 18V0.299999H101.696V18H100.796ZM102.596 18V0.299999H105.296V18H102.596ZM106.196 18V0.299999H107.096V18H106.196ZM109.796 18V0.299999H112.496V18H109.796ZM113.396 18V0.299999H114.296V18H113.396ZM99.1165 26.91H100.436V23.13H99.1765V22.47H101.216V26.91H102.416V27.57H99.1165V26.91ZM100.796 21.39C100.636 21.39 100.496 21.34 100.376 21.24C100.276 21.12 100.226 20.98 100.226 20.82C100.226 20.66 100.276 20.53 100.376 20.43C100.476 20.31 100.616 20.25 100.796 20.25C100.936 20.25 101.066 20.31 101.186 20.43C101.306 20.55 101.366 20.68 101.366 20.82C101.366 20.98 101.306 21.12 101.186 21.24C101.066 21.34 100.936 21.39 100.796 21.39ZM115.195 18V0.299999H116.095V18H115.195ZM118.795 18V0.299999H119.695V18H118.795ZM120.595 18V0.299999H121.495V18H120.595ZM124.195 18V0.299999H125.095V18H124.195ZM127.795 18V0.299999H128.695V18H127.795ZM129.595 18V0.299999H130.495V18H129.595ZM131.395 18V0.299999H134.095V18H131.395ZM134.995 18V0.299999H135.895V18H134.995ZM136.795 18V0.299999H139.495V18H136.795ZM142.195 18V0.299999H143.095V18H142.195ZM129.595 27.69C128.735 27.69 128.015 27.42 127.435 26.88L127.885 26.13L127.945 26.01L128.035 26.07C128.035 26.09 128.035 26.12 128.035 26.16C128.055 26.22 128.075 26.27 128.095 26.31C128.135 26.37 128.175 26.43 128.215 26.49C128.395 26.65 128.595 26.78 128.815 26.88C129.035 26.96 129.305 27 129.625 27C130.025 27 130.345 26.93 130.585 26.79C130.805 26.65 130.915 26.45 130.915 26.19C130.915 25.97 130.825 25.79 130.645 25.65C130.465 25.51 130.125 25.37 129.625 25.23C128.345 24.85 127.705 24.32 127.705 23.64C127.705 23.24 127.875 22.93 128.215 22.71C128.535 22.47 128.995 22.35 129.595 22.35C130.055 22.35 130.445 22.42 130.765 22.56C131.085 22.68 131.375 22.88 131.635 23.16L131.155 23.7L131.095 23.79L131.035 23.73C131.035 23.65 131.015 23.59 130.975 23.55C130.955 23.49 130.905 23.43 130.825 23.37C130.645 23.23 130.455 23.13 130.255 23.07C130.035 22.99 129.825 22.95 129.625 22.95C129.305 22.95 129.035 23.01 128.815 23.13C128.615 23.23 128.515 23.38 128.515 23.58C128.515 23.78 128.625 23.95 128.845 24.09C129.045 24.25 129.415 24.41 129.955 24.57C130.595 24.77 131.045 24.98 131.305 25.2C131.585 25.42 131.725 25.72 131.725 26.1C131.725 26.56 131.545 26.94 131.185 27.24C130.825 27.54 130.295 27.69 129.595 27.69ZM143.994 18V0.299999H144.894V18H143.994ZM147.594 18V0.299999H148.494V18H147.594ZM149.394 18V0.299999H150.294V18H149.394ZM152.994 18V0.299999H153.894V18H152.994ZM156.594 18V0.299999H157.494V18H156.594ZM158.394 18V0.299999H159.294V18H158.394ZM160.194 18V0.299999H161.094V18H160.194ZM161.994 18V0.299999H164.694V18H161.994ZM165.594 18V0.299999H168.294V18H165.594ZM170.994 18V0.299999H171.894V18H170.994ZM160.554 27.09C160.074 27.47 159.534 27.66 158.934 27.66C158.374 27.66 157.974 27.49 157.734 27.15C157.494 26.79 157.374 26.23 157.374 25.47C157.374 25.33 157.384 25.11 157.404 24.81L157.524 23.13H156.384V22.47H157.554L157.644 21.12L158.514 20.97H158.634V21.03C158.594 21.09 158.564 21.15 158.544 21.21C158.504 21.27 158.484 21.35 158.484 21.45L158.364 22.47H160.044V23.13H158.304L158.214 24.87C158.194 25.17 158.184 25.36 158.184 25.44C158.184 26.04 158.254 26.45 158.394 26.67C158.534 26.87 158.754 26.97 159.054 26.97C159.274 26.97 159.484 26.93 159.684 26.85C159.864 26.77 160.074 26.64 160.314 26.46L160.554 27.09ZM172.793 18V0.299999H173.693V18H172.793ZM176.393 18V0.299999H177.293V18H176.393ZM178.193 18V0.299999H179.093V18H178.193ZM181.793 18V0.299999H182.693V18H181.793ZM185.393 18V0.299999H186.293V18H185.393ZM187.193 18V0.299999H189.893V18H187.193ZM190.793 18V0.299999H191.693V18H190.793ZM192.593 18V0.299999H195.293V18H192.593ZM197.993 18V0.299999H198.893V18H197.993ZM199.793 18V0.299999H200.693V18H199.793ZM187.433 27.69C186.673 27.69 186.073 27.46 185.633 27C185.173 26.54 184.943 25.89 184.943 25.05C184.943 24.49 185.053 24 185.273 23.58C185.473 23.18 185.753 22.88 186.113 22.68C186.453 22.46 186.843 22.35 187.283 22.35C187.903 22.35 188.403 22.55 188.783 22.95C189.163 23.37 189.353 23.98 189.353 24.78C189.353 24.86 189.353 24.98 189.353 25.14H185.723C185.743 25.76 185.913 26.23 186.233 26.55C186.553 26.87 186.963 27.03 187.463 27.03C188.003 27.03 188.443 26.84 188.783 26.46L189.233 26.91C188.793 27.43 188.193 27.69 187.433 27.69ZM188.543 24.51C188.543 24.03 188.423 23.65 188.183 23.37C187.943 23.09 187.623 22.95 187.223 22.95C186.863 22.95 186.543 23.08 186.263 23.34C185.983 23.6 185.813 23.99 185.753 24.51H188.543ZM201.592 18V0.299999H202.492V18H201.592ZM205.192 18V0.299999H206.092V18H205.192ZM206.992 18V0.299999H207.892V18H206.992ZM210.592 18V0.299999H211.492V18H210.592ZM214.192 18V0.299999H215.092V18H214.192ZM215.992 18V0.299999H218.692V18H215.992ZM219.592 18V0.299999H220.492V18H219.592ZM221.392 18V0.299999H222.292V18H221.392ZM223.192 18V0.299999H225.892V18H223.192ZM228.592 18V0.299999H229.492V18H228.592ZM216.952 22.35C217.492 22.35 217.942 22.54 218.302 22.92L217.942 23.52L217.912 23.64L217.822 23.58C217.802 23.5 217.782 23.44 217.762 23.4C217.722 23.34 217.652 23.28 217.552 23.22C217.372 23.1 217.152 23.04 216.892 23.04C216.632 23.04 216.382 23.11 216.142 23.25C215.902 23.37 215.712 23.57 215.572 23.85C215.412 24.13 215.332 24.47 215.332 24.87V27.57H214.522V22.47H215.362L215.332 23.4C215.472 23.08 215.692 22.82 215.992 22.62C216.292 22.44 216.612 22.35 216.952 22.35Z" fill="#D4D4D4"/>
</svg>
